<svg class="img-fluid" id="outputsvg" xmlns="http://www.w3.org/2000/svg"
     width="720" height="1080" viewBox="0 0 7200 10800">
    <g id="lwCmFVs2WGRcslZnwlIHt6" fill="#F72674" style="transform: none;">
        <g>
            <path id="pYVUjDh7K"
                  d="M163 10788 c2 -7 883 -1750 1955 -3872 1476 -2920 1949 -3863 1940 -3873 -8 -10 -5 -13 14 -13 18 0 443 355 1574 1313 l1549 1312 3 2573 2 2572 -3521 0 c-2813 0 -3520 -3 -3516 -12z"></path>
        </g>
    </g>
    <g id="l6Kfd9MrZU3MGx62OvAuiry" fill="#AD0041" style="transform: none;">
        <g>
            <path id="p14zhrexXF"
                  d="M5640 4393 c-856 -725 -1564 -1327 -1575 -1338 -11 -11 -825 -702 -1809 -1535 l-1788 -1515 3363 -3 c1849 -1 3364 -1 3366 1 2 2 2 1287 1 2856 l-3 2852 -1555 -1318z"></path>
        </g>
    </g>
</svg>